<svg xmlns="http://www.w3.org/2000/svg" version="1.1" xmlns:xlink="http://www.w3.org/1999/xlink" width="512" height="512" x="0" y="0" viewBox="0 0 24 24" style="enable-background:new 0 0 512 512" xml:space="preserve" class=""><g><path d="M17.5 24c-3.584 0-6.5-2.916-6.5-6.5s2.916-6.5 6.5-6.5 6.5 2.916 6.5 6.5-2.916 6.5-6.5 6.5zm0-12c-3.032 0-5.5 2.467-5.5 5.5s2.468 5.5 5.5 5.5 5.5-2.467 5.5-5.5-2.468-5.5-5.5-5.5z" fill="#475569" opacity="1" data-original="#000000" class=""></path><path d="M19.5 20.5a.502.502 0 0 1-.354-.146l-2-2A.504.504 0 0 1 17 18v-3.5a.5.5 0 0 1 1 0v3.293l1.854 1.854a.5.5 0 0 1-.354.853z" fill="#475569" opacity="1" data-original="#000000" class=""></path><path d="M6.5 24A6.508 6.508 0 0 1 0 17.5c0-1.744.678-3.376 1.908-4.595L12.906 1.906A6.423 6.423 0 0 1 17.5 0C21.084 0 24 2.916 24 6.5c0 1.36-.412 2.657-1.192 3.75a.5.5 0 0 1-.814-.581A5.424 5.424 0 0 0 23 6.5C23 3.467 20.532 1 17.5 1a5.424 5.424 0 0 0-3.885 1.612L2.613 13.613A5.43 5.43 0 0 0 1 17.5C1 20.533 3.468 23 6.5 23a5.41 5.41 0 0 0 3.169-1.007.5.5 0 0 1 .582.814A6.418 6.418 0 0 1 6.5 24z" fill="#475569" opacity="1" data-original="#000000" class=""></path><path d="M11.14 11.64a.497.497 0 0 1-.354-.147l-3.38-3.39a.5.5 0 1 1 .708-.706l3.38 3.39a.5.5 0 0 1-.354.853z" fill="#475569" opacity="1" data-original="#000000" class=""></path></g></svg>